<svg xmlns="http://www.w3.org/2000/svg" xmlns:xlink="http://www.w3.org/1999/xlink" width="1920" zoomAndPan="magnify" viewBox="0 0 1440 809.999993" height="1080" preserveAspectRatio="xMidYMid meet" version="1.0"><path fill="#32196d" d="M 39.015625 16.230469 L 44.9375 22.152344 L 39.015625 28.074219 L 33.09375 22.152344 Z M 33.09375 55.058594 L 39.015625 60.980469 L 44.9375 55.058594 L 39.015625 49.132812 Z M 33.09375 38.605469 L 39.015625 44.527344 L 44.9375 38.605469 L 39.015625 32.683594 Z M 50.605469 103.601562 C 52.496094 105.492188 54.390625 107.382812 56.285156 109.277344 L 61.144531 104.414062 L 55.46875 98.738281 Z M 49.792969 87.964844 L 55.46875 93.640625 L 61.144531 87.964844 L 55.46875 82.285156 Z M 33.09375 71.511719 L 39.015625 77.433594 L 44.9375 71.511719 L 39.015625 65.585938 Z M 16.394531 55.058594 L 22.5625 61.226562 L 28.730469 55.058594 L 22.5625 48.886719 Z M 34.027344 87.027344 C 36 89.003906 37.976562 90.976562 39.949219 92.949219 L 44.9375 87.964844 L 39.015625 82.039062 Z M 67.1875 120.171875 C 68.996094 121.980469 70.808594 123.789062 72.617188 125.601562 L 77.351562 120.867188 L 71.921875 115.4375 Z M 49.792969 22.152344 L 55.46875 27.828125 L 61.144531 22.152344 L 55.46875 16.476562 Z M 16.394531 38.605469 L 22.5625 44.773438 L 28.730469 38.605469 L 22.5625 32.433594 Z M 66.492188 104.414062 L 71.921875 109.84375 L 77.351562 104.414062 L 71.921875 98.984375 Z M 66.492188 87.964844 L 71.921875 93.390625 L 77.351562 87.964844 L 71.921875 82.535156 Z M 49.792969 55.058594 L 55.46875 60.734375 L 61.144531 55.058594 L 55.46875 49.382812 Z M 49.792969 5.699219 L 55.46875 11.375 L 61.144531 5.699219 L 55.46875 0.0234375 Z M 49.792969 71.511719 L 55.46875 77.1875 L 61.144531 71.511719 L 55.46875 65.835938 Z M 49.792969 38.605469 L 55.46875 44.28125 L 61.144531 38.605469 L 55.46875 32.929688 Z M 33.09375 301.847656 L 39.015625 307.769531 L 44.9375 301.847656 L 39.015625 295.925781 Z M 99.890625 219.585938 L 104.824219 224.519531 L 109.761719 219.585938 L 104.824219 214.648438 Z M 99.890625 186.679688 L 104.824219 191.613281 L 109.761719 186.679688 L 104.824219 181.742188 Z M 17.449219 70.453125 C 19.503906 72.511719 21.5625 74.566406 23.621094 76.621094 L 28.730469 71.511719 L 22.5625 65.339844 Z M 99.890625 236.035156 L 104.824219 240.972656 L 109.761719 236.035156 L 104.824219 231.101562 Z M 100.359375 153.304688 C 102.003906 154.949219 103.652344 156.59375 105.296875 158.238281 L 109.761719 153.773438 L 104.824219 148.835938 Z M 99.890625 170.226562 L 104.824219 175.160156 L 109.761719 170.226562 L 104.824219 165.289062 Z M 99.890625 120.867188 L 104.824219 125.804688 L 109.761719 120.867188 L 104.824219 115.933594 Z M 99.890625 137.320312 L 104.824219 142.257812 L 109.761719 137.320312 L 104.824219 132.386719 Z M 99.890625 268.941406 L 104.824219 273.878906 L 109.761719 268.941406 L 104.824219 264.007812 Z M 99.890625 203.132812 L 104.824219 208.066406 L 109.761719 203.132812 L 104.824219 198.195312 Z M 99.890625 252.488281 L 104.824219 257.425781 L 109.761719 252.488281 L 104.824219 247.554688 Z M 33.09375 285.394531 L 39.015625 291.316406 L 44.9375 285.394531 L 39.015625 279.472656 Z M 16.394531 268.941406 L 22.5625 275.113281 L 28.730469 268.941406 L 22.5625 262.773438 Z M 0.871094 53.878906 C 3.011719 56.019531 5.148438 58.15625 7.289062 60.296875 L 12.527344 55.058594 L 6.109375 48.640625 Z M 16.394531 285.394531 L 22.5625 291.566406 L 28.730469 285.394531 L 22.5625 279.226562 Z M 33.09375 252.488281 L 39.015625 258.414062 L 44.9375 252.488281 L 39.015625 246.566406 Z M 33.09375 268.941406 L 39.015625 274.867188 L 44.9375 268.941406 L 39.015625 263.019531 Z M 66.492188 71.511719 L 71.921875 76.941406 L 77.351562 71.511719 L 71.921875 66.082031 Z M 33.15625 236.101562 L 39.015625 241.960938 L 44.9375 236.035156 L 39.078125 230.175781 C 37.105469 232.152344 35.128906 234.125 33.15625 236.101562 Z M 66.492188 268.941406 L 71.921875 274.371094 L 77.351562 268.941406 L 71.921875 263.511719 Z M 66.492188 55.058594 L 71.921875 60.488281 L 77.351562 55.058594 L 71.921875 49.628906 Z M 66.492188 301.847656 L 71.921875 307.277344 L 77.351562 301.847656 L 71.921875 296.417969 Z M 66.492188 236.035156 L 71.921875 241.464844 L 77.351562 236.035156 L 71.921875 230.609375 Z M 66.492188 285.394531 L 71.921875 290.824219 L 77.351562 285.394531 L 71.921875 279.964844 Z M 49.792969 301.847656 L 55.46875 307.523438 L 61.144531 301.847656 L 55.46875 296.171875 Z M 66.492188 203.132812 L 71.921875 208.5625 L 77.351562 203.132812 L 71.921875 197.703125 Z M 66.492188 219.585938 L 71.921875 225.015625 L 77.351562 219.585938 L 71.921875 214.15625 Z M 83.191406 268.941406 L 88.375 274.125 L 93.554688 268.941406 L 88.375 263.761719 Z M 83.191406 186.679688 L 88.375 191.863281 L 93.554688 186.679688 L 88.375 181.496094 Z M 49.792969 318.300781 L 55.46875 323.976562 L 61.144531 318.300781 L 55.46875 312.625 Z M 83.191406 252.488281 L 88.375 257.671875 L 93.554688 252.488281 L 88.375 247.308594 Z M 83.191406 285.394531 L 88.375 290.578125 L 93.554688 285.394531 L 88.375 280.210938 Z M 83.191406 236.035156 L 88.375 241.21875 L 93.554688 236.035156 L 88.375 230.855469 Z M 83.191406 203.132812 L 88.375 208.3125 L 93.554688 203.132812 L 88.375 197.949219 Z M 83.191406 219.585938 L 88.375 224.765625 L 93.554688 219.585938 L 88.375 214.402344 Z M 66.492188 252.488281 L 71.921875 257.917969 L 77.351562 252.488281 L 71.921875 247.058594 Z M 83.191406 120.867188 L 88.375 126.050781 L 93.554688 120.867188 L 88.375 115.6875 Z M 83.191406 104.414062 L 88.375 109.597656 L 93.554688 104.414062 L 88.375 99.234375 Z M 83.191406 87.964844 L 88.375 93.144531 L 93.554688 87.964844 L 88.375 82.78125 Z M 49.792969 285.394531 L 55.46875 291.070312 L 61.144531 285.394531 L 55.46875 279.71875 Z M 83.769531 136.742188 C 85.5 138.46875 87.226562 140.195312 88.957031 141.917969 L 93.554688 137.320312 L 88.375 132.136719 Z M 66.492188 22.152344 L 71.921875 27.582031 L 77.351562 22.152344 L 71.921875 16.722656 Z M 83.191406 38.605469 L 88.375 43.789062 L 93.554688 38.605469 L 88.375 33.421875 Z M 66.492188 38.605469 L 71.921875 44.035156 L 77.351562 38.605469 L 71.921875 33.175781 Z M 83.191406 71.511719 L 88.375 76.691406 L 93.554688 71.511719 L 88.375 66.328125 Z M 83.191406 55.058594 L 88.375 60.242188 L 93.554688 55.058594 L 88.375 49.875 Z M 49.792969 236.035156 L 55.46875 241.714844 L 61.144531 236.035156 L 55.46875 230.359375 Z M 49.792969 219.585938 L 55.46875 225.261719 L 61.144531 219.585938 L 55.46875 213.90625 Z M 49.792969 268.941406 L 55.46875 274.617188 L 61.144531 268.941406 L 55.46875 263.265625 Z M 49.792969 252.488281 L 55.46875 258.164062 L 61.144531 252.488281 L 55.46875 246.8125 Z M 0 269.25 L 6.109375 275.359375 L 12.527344 268.941406 L 6.417969 262.832031 C 4.277344 264.972656 2.140625 267.109375 0 269.25 Z M 99.890625 104.414062 L 104.824219 109.351562 L 109.761719 104.414062 L 104.824219 99.480469 Z M 16.578125 252.675781 L 22.5625 258.660156 L 28.730469 252.488281 L 22.746094 246.503906 C 20.691406 248.5625 18.632812 250.617188 16.578125 252.675781 Z M 149.988281 137.320312 L 154.183594 141.515625 L 158.378906 137.320312 L 154.183594 133.125 Z M 133.289062 120.867188 L 137.730469 125.308594 L 142.171875 120.867188 L 137.730469 116.425781 Z M 133.289062 87.964844 L 137.730469 92.40625 L 142.171875 87.964844 L 137.730469 83.519531 Z M 133.289062 153.773438 L 137.730469 158.214844 L 142.171875 153.773438 L 137.730469 149.332031 Z M 133.289062 137.320312 L 137.730469 141.761719 L 142.171875 137.320312 L 137.730469 132.878906 Z M 116.589844 219.585938 L 121.277344 224.273438 L 125.96875 219.585938 L 121.277344 214.894531 Z M 116.589844 252.488281 L 121.277344 257.179688 L 125.96875 252.488281 L 121.277344 247.800781 Z M 116.589844 236.035156 L 121.277344 240.726562 L 125.96875 236.035156 L 121.277344 231.347656 Z M 133.289062 104.414062 L 137.730469 108.859375 L 142.171875 104.414062 L 137.730469 99.972656 Z M 133.289062 170.226562 L 137.730469 174.667969 L 142.171875 170.226562 L 137.730469 165.785156 Z M 133.289062 219.585938 L 137.730469 224.027344 L 142.171875 219.585938 L 137.730469 215.140625 Z M 149.988281 104.414062 L 154.183594 108.609375 L 158.378906 104.414062 L 154.183594 100.21875 Z M 149.988281 120.867188 L 154.183594 125.0625 L 158.378906 120.867188 L 154.183594 116.671875 Z M 149.988281 153.773438 L 154.183594 157.96875 L 158.378906 153.773438 L 154.183594 149.578125 Z M 133.289062 236.035156 L 137.730469 240.480469 L 142.171875 236.035156 L 137.730469 231.59375 Z M 133.289062 186.679688 L 137.730469 191.121094 L 142.171875 186.679688 L 137.730469 182.238281 Z M 133.289062 203.132812 L 137.730469 207.574219 L 142.171875 203.132812 L 137.730469 198.6875 Z M 116.589844 203.132812 L 121.277344 207.820312 L 125.96875 203.132812 L 121.277344 198.441406 Z M 116.589844 153.773438 L 121.277344 158.460938 L 125.96875 153.773438 L 121.277344 149.085938 Z M 116.589844 137.320312 L 121.277344 142.011719 L 125.96875 137.320312 L 121.277344 132.632812 Z M 116.589844 170.226562 L 121.277344 174.914062 L 125.96875 170.226562 L 121.277344 165.539062 Z M 99.890625 87.964844 L 104.824219 92.898438 L 109.761719 87.964844 L 104.824219 83.027344 Z M 116.589844 186.679688 L 121.277344 191.367188 L 125.96875 186.679688 L 121.277344 181.988281 Z M 116.589844 120.867188 L 121.277344 125.558594 L 125.96875 120.867188 L 121.277344 116.179688 Z M 116.589844 87.964844 L 121.277344 92.652344 L 125.96875 87.964844 L 121.277344 83.273438 Z M 116.589844 104.414062 L 121.277344 109.105469 L 125.96875 104.414062 L 121.277344 99.726562 Z M 116.589844 71.511719 L 121.277344 76.199219 L 125.96875 71.511719 L 121.277344 66.820312 Z M 99.890625 55.058594 L 104.824219 59.992188 L 109.761719 55.058594 L 104.824219 50.121094 Z M 206.996094 153.773438 L 203.542969 150.320312 L 200.085938 153.773438 L 203.542969 157.230469 Z M 99.890625 71.511719 L 104.824219 76.445312 L 109.761719 71.511719 L 104.824219 66.574219 Z M 166.6875 203.132812 L 170.636719 207.082031 L 174.585938 203.132812 L 170.636719 199.183594 Z M 166.6875 137.320312 L 170.636719 141.269531 L 174.585938 137.320312 L 170.636719 133.371094 Z M 200.085938 170.226562 L 203.542969 173.679688 L 206.996094 170.226562 L 203.542969 166.769531 Z M 166.6875 153.773438 L 170.636719 157.722656 L 174.585938 153.773438 L 170.636719 149.824219 Z M 149.988281 203.132812 L 154.183594 207.328125 L 158.378906 203.132812 L 154.183594 198.9375 Z M 149.988281 186.679688 L 154.183594 190.875 L 158.378906 186.679688 L 154.183594 182.484375 Z M 149.988281 219.585938 L 154.183594 223.78125 L 158.378906 219.585938 L 154.183594 215.390625 Z M 166.6875 170.226562 L 170.636719 174.175781 L 174.585938 170.226562 L 170.636719 166.277344 Z M 166.6875 120.867188 L 170.636719 124.816406 L 174.585938 120.867188 L 170.636719 116.917969 Z M 183.386719 170.226562 L 187.089844 173.929688 L 190.789062 170.226562 L 187.089844 166.523438 Z M 183.386719 186.679688 L 187.089844 190.378906 L 190.789062 186.679688 L 187.089844 182.976562 Z M 183.386719 153.773438 L 187.089844 157.476562 L 190.789062 153.773438 L 187.089844 150.070312 Z M 149.988281 170.226562 L 154.183594 174.421875 L 158.378906 170.226562 L 154.183594 166.03125 Z M 183.386719 137.320312 L 187.089844 141.023438 L 190.789062 137.320312 L 187.089844 133.621094 Z M 166.6875 186.679688 L 170.636719 190.628906 L 174.585938 186.679688 L 170.636719 182.730469 Z M 166.6875 186.679688 " fill-opacity="1" fill-rule="nonzero"/></svg>